<?xml version="1.0" encoding="UTF-8"?>
<svg width="30px" height="30px" viewBox="0 0 30 30" version="1.1" xmlns="http://www.w3.org/2000/svg" xmlns:xlink="http://www.w3.org/1999/xlink">
    <!-- Generator: Sketch 59 (86127) - https://sketch.com -->
    <title>icon_after_sale</title>
    <desc>Created with Sketch.</desc>
    <g id="我的" stroke="none" stroke-width="1" fill="none" fill-rule="evenodd">
        <g id="7.1-我的" transform="translate(-248.000000, -213.000000)" fill="#333333" fill-rule="nonzero">
            <g id="Combined-Shape-4" transform="translate(248.000000, 213.000000)">
                <path d="M22.5188361,5 C23.8891451,5 25,6.11928813 25,7.5 L25,23.5 C25,24.8807119 23.8891451,26 22.5188361,26 L7.63185265,26 C6.26154366,26 5.15068874,24.8807119 5.15068874,23.5 L5.15068874,18.2834347 L3.87883888,19.8348903 C3.70430469,20.0477944 3.39152429,20.0778252 3.1802243,19.9019661 C2.96892431,19.7261069 2.93911974,19.4109519 3.11365393,19.1980478 L5.26432905,16.5745644 C5.56058654,16.2131772 6.1431543,16.4242566 6.1431543,16.8929857 L6.1431543,23.5 C6.1431543,24.3284271 6.80966726,25 7.63185265,25 L22.5188361,25 C23.3410215,25 24.0075344,24.3284271 24.0075344,23.5 L24.0075344,7.5 C24.0075344,6.67157288 23.3410215,6 22.5188361,6 L7.63185265,6 C6.80966726,6 6.1431543,6.67157288 6.1431543,7.5 L6.1431543,12.9825449 C6.1431543,13.2586872 5.92098332,13.4825449 5.64692152,13.4825449 C5.37285973,13.4825449 5.15068874,13.2586872 5.15068874,12.9825449 L5.15068874,7.5 C5.15068874,6.11928813 6.26154366,5 7.63185265,5 L22.5188361,5 Z M12.4488372,10.6464466 L15.0753444,13.2928932 L17.7018515,10.6464466 C17.8956425,10.4511845 18.2098397,10.4511845 18.4036306,10.6464466 C18.5974216,10.8417088 18.5974216,11.1582912 18.4036306,11.3535534 L16.2722493,13.5 L19.1078502,13.5 C19.3473149,13.5 19.5414394,13.7238576 19.5414394,14 C19.5414394,14.2761424 19.3473149,14.5 19.1078502,14.5 L15.5782493,14.5 L15.5782493,17.5 L18.0865375,17.5 C18.3419341,17.5 18.5489738,17.7238576 18.5489738,18 C18.5489738,18.2761424 18.3419341,18.5 18.0865375,18.5 L15.5782493,18.5 L15.5791116,21.0838019 C15.5791116,21.3136617 15.355254,21.5 15.0791116,21.5 C14.8029692,21.5 14.5791116,21.3136617 14.5791116,21.0838019 L14.5782493,18.5 L12.0641512,18.5 C11.8087547,18.5 11.6017149,18.2761424 11.6017149,18 C11.6017149,17.7238576 11.8087547,17.5 12.0641512,17.5 L14.5782493,17.5 L14.5782493,14.5 L11.0428385,14.5 C10.8033738,14.5 10.6092493,14.2761424 10.6092493,14 C10.6092493,13.7238576 10.8033738,13.5 11.0428385,13.5 L13.8772493,13.5 L11.7470581,11.3535534 C11.5532672,11.1582912 11.5532672,10.8417088 11.7470581,10.6464466 C11.9408491,10.4511845 12.2550463,10.4511845 12.4488372,10.6464466 Z" id="Combined-Shape"></path>
            </g>
        </g>
    </g>
</svg>